<svg width="228" height="63" viewBox="0 0 228 63" fill="none" xmlns="http://www.w3.org/2000/svg">
<path d="M18 38.5302L31.7138 32.4343L39.6073 37.0061L41.2019 52.0045L31.4747 51.9247L32.9098 41.4979L31.2355 40.5349L23.0231 46.9517L18 38.5302Z" fill="#F2CEBB"/>
<path d="M40.4849 36.3638L52.6043 45.267L57.3881 36.6847L47.6605 32.7546V30.8296L57.3881 26.8193L52.6043 18.3174L40.4849 27.2203V36.3638Z" fill="#973D0D"/>
<path d="M39.6073 26.4986L41.2019 11.5L31.4747 11.6604L32.9098 22.0873L31.2355 23.0497L22.9433 16.6332L18 24.9747L31.7138 31.0704L39.6073 26.4986Z" fill="#ED702D"/>
<path d="M89.8403 29.9549V44.0067H95.0754V26.0991H87.4514V29.9549H89.8403Z" fill="white"/>
<path d="M89.6765 23.5829C90.1564 24.0838 90.8871 24.3344 91.8686 24.3344C92.8507 24.3344 93.5701 24.0838 94.0279 23.5829C94.5084 23.0598 94.7478 22.4063 94.7478 21.6222C94.7478 20.8161 94.5084 20.1625 94.0279 19.6615C93.5701 19.1387 92.8507 18.8772 91.8686 18.8772C90.8871 18.8772 90.1564 19.1387 89.6765 19.6615C89.2187 20.1625 88.9895 20.8161 88.9895 21.6222C88.9895 22.4063 89.2187 23.0598 89.6765 23.5829Z" fill="white"/>
<path d="M71.6151 43.6142C73.0982 44.2895 74.9196 44.6274 77.0788 44.6274C79.1078 44.6274 80.8525 44.3116 82.3145 43.6795C83.7759 43.048 84.899 42.1655 85.6844 41.033C86.4918 39.8779 86.895 38.5382 86.895 37.0133C86.895 35.532 86.514 34.2793 85.7503 33.2553C85.0082 32.2097 83.9727 31.3927 82.6415 30.8047C81.3108 30.1946 79.7731 29.8133 78.0279 29.661L76.1957 29.4976C75.105 29.4102 74.3197 29.1164 73.8397 28.6151C73.3598 28.1142 73.1198 27.5259 73.1198 26.8507C73.1198 26.3276 73.2511 25.8485 73.5122 25.4128C73.7743 24.9552 74.1667 24.5959 74.6904 24.3343C75.2358 24.073 75.9011 23.9423 76.6864 23.9423C77.515 23.9423 78.2025 24.0946 78.7478 24.3998C78.8678 24.4643 78.9818 24.5333 79.0889 24.6064L79.1148 24.6245C79.1548 24.6522 79.1943 24.6808 79.2326 24.7098C79.5639 24.9626 79.8277 25.2623 80.0239 25.6088C80.3071 26.0882 80.4498 26.6218 80.4498 27.2101H85.6844C85.6844 25.6415 85.3244 24.2799 84.605 23.1254C83.8851 21.949 82.849 21.0449 81.4967 20.413C80.1655 19.7594 78.5624 19.4326 76.6864 19.4326C74.8974 19.4326 73.349 19.7378 72.0399 20.3477C70.7314 20.936 69.7061 21.7856 68.9646 22.8965C68.2441 24.0076 67.8842 25.3258 67.8842 26.8507C67.8842 28.9637 68.5938 30.6629 70.0115 31.9484C71.4292 33.2337 73.3273 33.9744 75.7049 34.1704L77.5047 34.3338C78.9656 34.4645 80.0239 34.7587 80.6784 35.216C81.3324 35.6517 81.6599 36.2508 81.6599 37.0133C81.6599 37.3638 81.6026 37.6924 81.4875 37.9995C81.4021 38.2273 81.2854 38.4432 81.1367 38.6472C80.7871 39.105 80.2747 39.4639 79.5985 39.7257C78.9224 39.9869 78.0825 40.1176 77.0788 40.1176C75.9665 40.1176 75.0612 39.9654 74.3634 39.6604C73.6651 39.3333 73.1419 38.9085 72.7923 38.386C72.4653 37.8629 72.302 37.2967 72.302 36.6865H67.0994C67.0994 38.2332 67.481 39.6059 68.2441 40.8042C69.0078 41.9803 70.1315 42.9174 71.6151 43.6142Z" fill="white"/>
<path d="M106.756 44.2349C104.946 44.2349 103.484 44.0174 102.372 43.5812C101.259 43.124 100.441 42.3727 99.9175 41.3271C99.4159 40.2595 99.1651 38.8215 99.1651 37.0132V29.9222H96.4492V26.099H99.1651V21.2627H104.04V26.099H109.276V29.9222H104.04V37.2095C104.04 38.0591 104.259 38.7125 104.695 39.1697C105.153 39.6058 105.796 39.8233 106.625 39.8233H109.276V44.2349H106.756Z" fill="white"/>
<path fill-rule="evenodd" clip-rule="evenodd" d="M115.579 43.843C116.757 44.3661 118.11 44.6273 119.637 44.6273C121.141 44.6273 122.472 44.3661 123.629 43.843C124.785 43.32 125.744 42.5902 126.508 41.6537C127.271 40.7167 127.784 39.6495 128.045 38.4512H123.236C123.018 38.9959 122.603 39.4531 121.992 39.8234C121.382 40.1942 120.596 40.3793 119.637 40.3793C119.042 40.3793 118.511 40.3091 118.043 40.1683C117.686 40.0614 117.367 39.914 117.084 39.7257C116.43 39.2901 115.95 38.6796 115.645 37.8957C115.56 37.6724 115.487 37.4387 115.426 37.1953C115.364 36.9488 115.314 36.6922 115.276 36.4252H128.373V34.6605C128.373 33.0266 128.024 31.5235 127.326 30.1511C126.628 28.7566 125.613 27.6347 124.283 26.7851C122.974 25.9137 121.36 25.478 119.44 25.478C117.978 25.478 116.669 25.7395 115.513 26.2624C114.38 26.7633 113.431 27.4495 112.667 28.3209C111.904 29.1923 111.315 30.1837 110.9 31.2948C110.507 32.3838 110.311 33.5275 110.311 34.7258V35.3793C110.311 36.5341 110.507 37.6668 110.9 38.7778C111.315 39.8671 111.904 40.8581 112.667 41.7514C113.452 42.6232 114.422 43.32 115.579 43.843ZM115.366 33.194C115.381 33.1248 115.396 33.0566 115.413 32.9895C115.458 32.8048 115.51 32.6277 115.57 32.4586C115.603 32.3623 115.639 32.2683 115.677 32.177C116.004 31.3709 116.484 30.761 117.117 30.3471C117.354 30.1924 117.61 30.0666 117.885 29.9698C118.347 29.8075 118.866 29.7262 119.44 29.7262C120.335 29.7262 121.076 29.9333 121.665 30.3471C122.276 30.7391 122.734 31.3164 123.039 32.0789C123.064 32.1404 123.087 32.2031 123.11 32.2665C123.146 32.3675 123.18 32.4712 123.211 32.5775C123.257 32.7356 123.298 32.8993 123.333 33.0685C123.359 33.1932 123.381 33.3208 123.401 33.4515H115.316C115.331 33.3642 115.348 33.2784 115.366 33.194Z" fill="white"/>
<path d="M130.533 44.0067V26.0991H134.689V30.6093C134.745 30.3412 134.809 30.0839 134.881 29.8371C134.943 29.6292 135.009 29.4288 135.081 29.2361C135.539 28.0161 136.226 27.1013 137.143 26.4911C138.059 25.8594 139.182 25.5437 140.513 25.5437H140.742C142.094 25.5437 143.218 25.8594 144.112 26.4911C145.028 27.1013 145.716 28.0161 146.173 29.2361L146.21 29.3283L146.24 29.4124C146.261 29.353 146.283 29.2943 146.304 29.2361C146.784 28.0161 147.482 27.1013 148.399 26.4911C149.315 25.8594 150.438 25.5437 151.769 25.5437H151.998C153.35 25.5437 154.484 25.8594 155.401 26.4911C156.339 27.1013 157.048 28.0161 157.527 29.2361C158.007 30.4562 158.248 31.9812 158.248 33.8111V44.0067H153.012V33.517C153.012 32.5366 152.751 31.7415 152.227 31.1316C151.725 30.5214 151.005 30.2165 150.068 30.2165C149.129 30.2165 148.388 30.5325 147.842 31.1642C147.297 31.7741 147.024 32.591 147.024 33.6151V44.0067H141.756V33.517C141.756 32.5366 141.494 31.7415 140.971 31.1316C140.469 30.5214 139.76 30.2165 138.844 30.2165C137.884 30.2165 137.132 30.5325 136.586 31.1642C136.041 31.7741 135.768 32.591 135.768 33.6151V44.0067H130.533Z" fill="white"/>
<path fill-rule="evenodd" clip-rule="evenodd" d="M172.232 40.556V44.0067H176.387V33.0268C176.387 31.371 176.06 30.0204 175.406 28.9746C174.751 27.9072 173.792 27.112 172.527 26.5893C171.284 26.0664 169.745 25.8049 167.913 25.8049C167.516 25.8049 167.101 25.8091 166.669 25.8178C166.414 25.8231 166.152 25.8297 165.884 25.8375C165.164 25.8594 164.466 25.892 163.79 25.9357L163.274 25.9704C163.008 25.9888 162.759 26.007 162.525 26.0254C162.348 26.0391 162.181 26.0528 162.024 26.0664V30.478C162.7 30.4343 163.452 30.3907 164.281 30.3472C164.513 30.3351 164.743 30.3238 164.971 30.3133C165.301 30.2981 165.625 30.2849 165.947 30.2733C166.201 30.2641 166.453 30.256 166.703 30.2491C167.487 30.2272 168.12 30.2165 168.6 30.2165C169.56 30.2165 170.258 30.4451 170.695 30.9027C171.131 31.3602 171.349 32.0464 171.349 32.9615V33.0268H168.109C166.517 33.0268 165.11 33.2338 163.888 33.6477C162.667 34.0397 161.718 34.6607 161.042 35.5102C160.365 36.3382 160.028 37.4057 160.028 38.7126C160.028 39.9109 160.3 40.9457 160.845 41.8174C161.391 42.667 162.143 43.3201 163.103 43.7779C164.085 44.235 165.219 44.4639 166.506 44.4639C167.749 44.4639 168.796 44.235 169.648 43.7779C170.52 43.3201 171.196 42.667 171.676 41.8174C171.76 41.6738 171.839 41.5254 171.913 41.371C172.017 41.1529 172.109 40.9235 172.191 40.6828L172.232 40.556ZM171.349 37.373V35.9352H168.076C167.16 35.9352 166.452 36.1638 165.95 36.6213C165.47 37.057 165.23 37.6561 165.23 38.4184C165.23 38.7774 165.29 39.104 165.409 39.3976C165.53 39.6923 165.71 39.9541 165.95 40.1835C166.452 40.6191 167.16 40.8366 168.076 40.8366C168.251 40.8366 168.42 40.828 168.582 40.8113C168.715 40.7972 168.844 40.7773 168.969 40.7519C169.209 40.7033 169.436 40.6337 169.648 40.5425C170.128 40.3249 170.52 39.9654 170.825 39.464C171.131 38.9631 171.305 38.2662 171.349 37.373Z" fill="white"/>
<path d="M179.521 44.0066V26.099H183.677V32.0097C183.875 30.3224 184.378 28.9619 185.182 27.9289C186.272 26.5565 187.843 25.8704 189.894 25.8704H190.581V30.3798H189.272C187.832 30.3798 186.719 30.7718 185.934 31.5561C185.149 32.3186 184.756 33.4297 184.756 34.8892V44.0066H179.521Z" fill="white"/>
<path d="M197.219 35.6408H198.954L204.614 44.0065H210.504L203.326 33.7325L209.228 26.0989H203.731L197.219 34.6136V20.1516H191.984V44.0065H197.219V35.6408Z" fill="white"/>
</svg>
